<?xml version="1.0" encoding="UTF-8"?>
<svg width="338px" height="576px" viewBox="0 0 338 576" version="1.1" xmlns="http://www.w3.org/2000/svg" xmlns:xlink="http://www.w3.org/1999/xlink">
    <!-- Generator: Sketch 60 (88103) - https://sketch.com -->
    <title>Combined Shape</title>
    <desc>Created with Sketch.</desc>
    <g id="Page-1" stroke="none" stroke-width="1" fill="none" fill-rule="evenodd" opacity="0.158438">
        <g id="Artboard-Copy-8" transform="translate(-1582.000000, -64.000000)" fill-rule="nonzero" stroke="#FFFFFF" stroke-width="2.79999995">
            <path d="M1680.51575,66.7223271 C1726.31068,91.9268017 1773.04019,116.197777 1818.83511,141.402252 C1825.37724,145.136248 1826.24166,155.824295 1826.24166,166.485752 C1826.24166,177.14721 1823.50806,189.944203 1815.09675,191.811201 C1770.23642,201.146191 1740.32953,239.419653 1715.09559,274.892617 C1709.48805,282.360609 1702.94592,273.025619 1701.07674,267.424624 C1698.27297,258.089634 1699.20756,247.821144 1704.8151,239.419653 C1716.96477,222.61667 1730.04904,204.880188 1745.00248,189.944203 C1710.42264,191.811201 1676.77739,198.345694 1646.8705,217.015675 C1630.04788,228.217664 1615.09443,242.22015 1606.68312,260.890131 C1598.27181,280.493611 1602.01017,302.897589 1608.5523,323.434568 C1634.72083,413.050477 1702.01133,488.663901 1780.51691,538.139351 C1823.69056,565.216736 1870.90914,585.291101 1919.9999,597.49436 L1920.0007,638.067178 C1878.57081,627.967666 1838.22248,612.218231 1801.0779,591.348797 C1710.42264,541.873347 1634.72083,461.592428 1599.2064,364.508526 C1579.58,311.29908 1573.03787,249.688142 1612.29066,203.946689 C1645.93591,163.806229 1699.20756,151.670741 1750.61002,149.803743 L1756.21756,149.803743 L1756.21756,149.803743 C1729.11445,134.867758 1702.01133,120.865272 1674.90821,105.929288 C1662.75854,99.3947941 1667.43149,59.2543347 1680.51575,66.7223271 Z" id="Combined-Shape"></path>
        </g>
    </g>
</svg>