<?xml version="1.0" encoding="UTF-8"?>
<svg width="507px" height="819px" viewBox="0 0 507 819" version="1.1" xmlns="http://www.w3.org/2000/svg" xmlns:xlink="http://www.w3.org/1999/xlink">
    <g id="Page-1" stroke="none" stroke-width="1" fill="none" fill-rule="evenodd" opacity="0.158438">
        <g id="Artboard-Copy-8" transform="translate(-89.000000, -261.000000)" fill-rule="nonzero" stroke="#FFFFFF" stroke-width="2.79999995">
            <path d="M443.964449,264.626412 C464.193225,253.076868 471.417788,315.155669 452.633924,325.261521 C410.73146,348.36061 368.828995,370.016005 326.92653,393.115094 L326.92653,393.115094 L335.596006,393.115094 C415.066197,396.00248 497.426214,414.77049 549.443067,476.849291 C610.129395,547.590251 600.015007,642.873992 569.671843,725.164496 C514.765165,875.308574 397.727246,999.466176 257.570726,1075.98191 C253.331073,1078.3647 249.064424,1080.70433 244.772098,1083.00048 L83.4115534,1083.00412 C155.827142,1063.94444 225.458646,1033.78089 289.358803,993.691404 C410.73146,917.175672 514.765165,800.236535 555.222717,661.642002 C565.337105,629.880755 571.116756,595.232122 558.112543,564.914567 C545.108329,536.040706 521.989728,514.385311 495.981302,497.060994 C449.744099,468.187133 397.727246,458.081282 344.265481,455.193895 C367.384082,478.292984 387.612858,505.723152 406.396722,531.709627 C415.066197,544.702865 416.51111,560.583488 412.176372,575.020419 C409.286547,583.682577 399.172159,598.119508 390.502684,586.569963 C351.490044,531.709627 305.252841,472.518212 235.897038,458.081282 C222.892824,455.193895 220.002999,437.869579 220.002999,426.320034 C220.002999,424.876341 220.002999,385.896629 230.117387,380.121857 C300.918104,341.142144 373.163733,303.606125 443.964449,264.626412 Z" id="Combined-Shape"></path>
        </g>
    </g>
</svg>