<svg width="31px" height="60px" viewBox="0 0 31 60" version="1.1" xmlns="http://www.w3.org/2000/svg" xmlns:xlink="http://www.w3.org/1999/xlink">
    <g stroke="none" stroke-width="1" fill="none" fill-rule="evenodd">
        <g transform="translate(-321.000000, -407.000000)" fill="#F5F1ED" fill-rule="nonzero">
            <g transform="translate(248.000000, 367.000000)">
                <g transform="translate(88.000000, 70.000000) rotate(90.000000) translate(-88.000000, -70.000000) translate(58.000000, 54.000000)">
                    <path d="M22.9499977,30.3532227 C22.9499977,30.6286227 22.7974912,30.8803323 22.5539251,31.0084081 C22.3110993,31.1350033 22.016451,31.1187162 21.789172,30.9625081 L21.789172,30.9625081 L0.319819322,16.156058 C0.119932246,16.0176177 7.10542736e-15,15.7903387 7.10542736e-15,15.5467726 C7.10542736e-15,15.3032065 0.119191923,15.0759275 0.319819322,14.9374872 L0.319819322,14.9374872 L21.789172,0.131037083 C21.9157671,0.0444193503 22.062351,-3.7658765e-13 22.2096752,-3.7658765e-13 C22.3273864,-3.7658765e-13 22.445838,0.0281322552 22.5539251,0.0843967656 C22.7974912,0.212472559 22.9499977,0.464922533 22.9499977,0.740322505 L22.9499977,0.740322505 L22.9499977,13.7699986 L59.6699939,13.7699986 L59.6699939,17.2124982 L22.9499977,17.2124982 Z" id="Combined-Shape"></path>
                </g>
            </g>
        </g>
    </g>
</svg>