<svg width="14px" height="62px" viewBox="0 0 14 62" version="1.1" xmlns="http://www.w3.org/2000/svg" xmlns:xlink="http://www.w3.org/1999/xlink">
    <g stroke="none" stroke-width="1" fill="none" fill-rule="evenodd">
        <g transform="translate(-590.000000, -406.000000)" fill="#5B5B59" fill-rule="nonzero">
            <g transform="translate(248.000000, 367.000000)">
                <g transform="translate(342.549986, 39.949998)">
                    <path d="M0.390510705,0 L3.85948838,0 C4.07481706,0 4.24999982,0.646174072 4.24999982,1.43369929 L4.24999982,58.9095652 C4.24999982,59.7038193 4.07481706,60.3499975 3.85948838,60.3499975 L0.390510705,60.3499975 C0.175182391,60.3499975 0,59.7038193 0,58.9095652 L0,1.43369929 C0,0.646174072 0.175182391,0 0.390510705,0 Z" id="Path"></path>
                    <path d="M8.8888527,0 L12.3611464,0 C12.5747422,0 12.7499995,0.646174072 12.7499995,1.43369929 L12.7499995,58.9095652 C12.7499995,59.7038193 12.5747422,60.3499975 12.3611464,60.3499975 L8.8888527,60.3499975 C8.67343226,60.3499975 8.49999964,59.7038193 8.49999964,58.9095652 L8.49999964,1.43369929 C8.49999964,0.646174072 8.67343228,0 8.8888527,0 Z" id="Path"></path>
                </g>
            </g>
        </g>
    </g>
</svg>